<svg width="59" height="12" viewBox="0 0 59 12" fill="none" xmlns="http://www.w3.org/2000/svg">
<path d="M24 1.88616L23.7969 2.34306L24 1.88616ZM58.9381 7.62703C59.0712 7.38507 58.9829 7.08104 58.741 6.94796L54.798 4.77932C54.556 4.64624 54.252 4.73451 54.1189 4.97647C53.9858 5.21843 54.0741 5.52246 54.3161 5.65554L57.8209 7.58322L55.8933 11.0881C55.7602 11.33 55.8484 11.6341 56.0904 11.7671C56.3324 11.9002 56.6364 11.812 56.7695 11.57L58.9381 7.62703ZM1.35356 11.7397C1.55704 11.5362 1.77753 11.3189 2.01388 11.0903L1.31857 10.3715C1.07805 10.6042 0.85362 10.8254 0.646443 11.0326L1.35356 11.7397ZM3.37409 9.81707C3.81152 9.42103 4.28088 9.00873 4.77815 8.58882L4.13299 7.82478C3.62621 8.25271 3.14817 8.67264 2.70292 9.07578L3.37409 9.81707ZM6.22002 7.416C6.69809 7.04199 7.19456 6.66841 7.7067 6.30106L7.12385 5.48848C6.59956 5.86454 6.09197 6.24651 5.60384 6.6284L6.22002 7.416ZM9.23932 5.25463C9.7554 4.92033 10.2831 4.59706 10.82 4.28981L10.3233 3.42188C9.76917 3.73898 9.22582 4.0719 8.69565 4.41533L9.23932 5.25463ZM12.4508 3.42366C13.0058 3.15228 13.5673 2.90231 14.1327 2.67866L13.7649 1.74875C13.1731 1.98282 12.5878 2.24352 12.0115 2.52529L12.4508 3.42366ZM15.8641 2.08418C16.4555 1.91314 17.0478 1.77585 17.6385 1.67746L17.4742 0.691045C16.8417 0.79639 16.2115 0.94272 15.5863 1.12355L15.8641 2.08418ZM19.437 1.50323C20.0391 1.489 20.6368 1.52151 21.2275 1.60623L21.3695 0.616362C20.7204 0.523269 20.0672 0.488062 19.4134 0.503504L19.437 1.50323ZM22.9645 2.01845C23.2439 2.11268 23.5215 2.22064 23.7969 2.34306L24.2031 1.42925C23.8991 1.29417 23.5927 1.17496 23.2841 1.07089L22.9645 2.01845ZM23.7969 2.34306C24.0975 2.47667 24.3995 2.61262 24.703 2.75047L25.1165 1.83998C24.8111 1.70124 24.5066 1.56416 24.2031 1.42925L23.7969 2.34306ZM26.5131 3.58215C27.1103 3.85834 27.7152 4.1384 28.3274 4.41826L28.7432 3.50878C28.1334 3.23003 27.5308 2.95104 26.9328 2.67449L26.5131 3.58215ZM30.1542 5.23933C30.7606 5.50613 31.3757 5.76996 32.0002 6.02766L32.3817 5.10326C31.7655 4.84903 31.1577 4.58832 30.5569 4.324L30.1542 5.23933ZM33.8707 6.76692C34.4933 7.00138 35.1258 7.22732 35.7692 7.44192L36.0856 6.4933C35.4554 6.2831 34.835 6.06149 34.2232 5.83109L33.8707 6.76692ZM37.6972 8.03871C38.3379 8.2212 38.9895 8.39065 39.653 8.54454L39.8789 7.5704C39.2325 7.42045 38.5969 7.25519 37.9712 7.07696L37.6972 8.03871ZM41.6334 8.94895C42.2889 9.06442 42.9557 9.1635 43.6348 9.24405L43.7526 8.25101C43.0928 8.17275 42.4445 8.07643 41.8069 7.96412L41.6334 8.94895ZM45.6517 9.4245C46.3148 9.4645 46.9893 9.48615 47.6756 9.48767L47.6778 8.48767C47.0111 8.4862 46.356 8.46517 45.7119 8.42631L45.6517 9.4245ZM49.6968 9.43417C50.359 9.39777 51.032 9.34236 51.7163 9.2665L51.6061 8.27259C50.9402 8.34641 50.2857 8.40029 49.6419 8.43567L49.6968 9.43417ZM53.7153 8.99084C54.368 8.88332 55.0308 8.75719 55.7039 8.61132L55.4922 7.63401C54.8352 7.77636 54.1889 7.89936 53.5527 8.00413L53.7153 8.99084ZM57.6623 8.13817C57.9857 8.05209 58.3114 7.96148 58.6394 7.86624L58.3606 6.9059C58.0396 6.99907 57.7212 7.08768 57.4051 7.17183L57.6623 8.13817Z" fill="#7A6E77"/>
</svg>
