<svg width="25" height="50" viewBox="0 0 25 50" fill="none" xmlns="http://www.w3.org/2000/svg">
<path d="M0.550716 46.7806C0.429535 47.0287 0.53245 47.3281 0.780582 47.4493L4.82414 49.424C5.07227 49.5452 5.37166 49.4423 5.49284 49.1942C5.61402 48.946 5.5111 48.6467 5.26297 48.5255L1.6687 46.7701L3.42404 43.1759C3.54522 42.9277 3.44231 42.6283 3.19418 42.5072C2.94604 42.386 2.64666 42.4889 2.52548 42.737L0.550716 46.7806ZM1.16254 47.4728C1.4763 47.365 1.78575 47.2556 2.09093 47.1447L1.74944 46.2048C1.44979 46.3137 1.14581 46.4212 0.83746 46.5272L1.16254 47.4728ZM3.91448 46.444C4.53423 46.1923 5.13472 45.9338 5.71645 45.6688L5.30184 44.7588C4.73314 45.0179 4.14542 45.2709 3.53814 45.5176L3.91448 46.444ZM7.48374 44.8144C8.07947 44.5088 8.65323 44.1956 9.20567 43.8752L8.70389 43.0102C8.16681 43.3217 7.60819 43.6267 7.02733 43.9246L7.48374 44.8144ZM10.881 42.8386C11.4422 42.4681 11.9782 42.0891 12.4899 41.702L11.8865 40.9045C11.3923 41.2784 10.8738 41.6451 10.33 42.0041L10.881 42.8386ZM14.0193 40.4587C14.527 40.0147 15.0063 39.5614 15.4583 39.0995L14.7436 38.4001C14.31 38.8432 13.8496 39.2786 13.361 39.7059L14.0193 40.4587ZM16.7837 37.6279C17.2122 37.1098 17.61 36.5823 17.9786 36.0464L17.1548 35.4796C16.8029 35.9912 16.4228 36.4951 16.013 36.9907L16.7837 37.6279ZM19.0274 34.3628C19.3545 33.78 19.6507 33.1889 19.9179 32.5903L19.0048 32.1826C18.7498 32.7537 18.4673 33.3176 18.1553 33.8734L19.0274 34.3628ZM20.644 30.7453C20.8591 30.1184 21.0456 29.4849 21.2057 28.846L20.2357 28.603C20.0823 29.2154 19.9037 29.8216 19.6981 30.4208L20.644 30.7453ZM21.6091 26.9096C21.718 26.2611 21.8025 25.6081 21.8647 24.9516L20.8691 24.8574C20.8091 25.4911 20.7277 26.1203 20.6229 26.744L21.6091 26.9096ZM21.9856 22.9842C21.9953 22.6567 22 22.3286 22 22H21C21 22.319 20.9954 22.6373 20.986 22.9546L21.9856 22.9842ZM22 22C22 21.627 22 21.2705 22.0001 20.9295L21.0001 20.9293C21 21.2704 21 21.627 21 22H22ZM22.0026 18.8006C22.0049 17.9801 22.0093 17.2787 22.0177 16.669L21.0178 16.6552C21.0093 17.2702 21.0049 17.9758 21.0026 18.7977L22.0026 18.8006ZM22.0821 14.5609C22.1307 13.7205 22.2077 13.1242 22.3294 12.5208L21.3491 12.3231C21.2166 12.9802 21.1346 13.6241 21.0838 14.5032L22.0821 14.5609ZM22.837 10.4823C22.9873 9.91921 23.1648 9.25149 23.3735 8.41573L22.4032 8.17348C22.1966 9.00117 22.0208 9.66258 21.8708 10.2244L22.837 10.4823ZM23.8716 6.33749C24.0154 5.71357 24.17 5.02205 24.3363 4.25134L23.3588 4.0404C23.1934 4.80672 23.0398 5.4937 22.8971 6.11292L23.8716 6.33749ZM24.7763 2.15602C24.8459 1.81596 24.9172 1.4635 24.9903 1.09806L24.0097 0.901942C23.9369 1.26596 23.8659 1.61695 23.7966 1.95553L24.7763 2.15602Z" fill="#7A6E77"/>
</svg>
